<svg xmlns="http://www.w3.org/2000/svg" fill-rule="evenodd" clip-rule="evenodd" image-rendering="optimizeQuality" shape-rendering="geometricPrecision" text-rendering="geometricPrecision" viewBox="3.5 1 1268.1 1724.5"><path fill="#480024" d="M587.5 1.5Q857-4.2 1120.5 52a1260 1260 0 0 1 151 43.5q.3 592.5-.5 1185-4.6 97.8-72 168a411 411 0 0 1-81.5 62.5 798 798 0 0 1-130 58 1505 1505 0 0 1-72 23 7707 7707 0 0 0-166 48q-26.7 9.7-49 27a5265 5265 0 0 1-63 58.5 5620 5620 0 0 0-66-60.5 193 193 0 0 0-32-19 498 498 0 0 0-53-18 16805 16805 0 0 1-141-40 967 967 0 0 1-169-66q-62-31.5-109.5-82.5a250 250 0 0 1-63-146q-1.2-599 .5-1198 132.3-46.2 271-66.5 155.4-23.7 312-27.5" data-source="https://football-logos.cc"/><path fill="#eee" d="M568.5 40.5q255.8-7.2 507 41.5a1377 1377 0 0 1 158 41.5q.3 578.5-.5 1157a216 216 0 0 1-61 141 420 420 0 0 1-126.5 83.5 1229 1229 0 0 1-144 51 23467 23467 0 0 0-145 41 251 251 0 0 0-74 35 854 854 0 0 0-45 40.5 760 760 0 0 0-48-42.5 266 266 0 0 0-43-23 1224 1224 0 0 0-53-17 3268 3268 0 0 1-202-60 648 648 0 0 1-130-61A269 269 0 0 1 61 1361.5q-17-37.1-19-78-1.2-580 .5-1160a1312 1312 0 0 1 176-45.5q173.8-32.1 350-37.5"/><path fill="#490125" d="M570.5 65.5q211.2-4.9 420 26.5a1549 1549 0 0 1 217 49.5q1.8 569 .5 1138a191 191 0 0 1-66.5 136.5 439 439 0 0 1-113 69 1172 1172 0 0 1-131 46 12226 12226 0 0 0-148 42 245 245 0 0 0-112 65.5 259 259 0 0 0-50-39.5 343 343 0 0 0-80-31 22182 22182 0 0 1-141-40 986 986 0 0 1-158-61 333 333 0 0 1-92.5-68.5 187 187 0 0 1-49-119q-1.2-569 .5-1138a1509 1509 0 0 1 230-51.5q136-20.3 273-24.5"/><path fill="#93bde4" d="M1181.5 159.5q1.5 557 1 1114-1.2 62.1-42.5 108a339 339 0 0 1-108.5 74.5 991 991 0 0 1-115 43 8488 8488 0 0 1-151 43 385 385 0 0 0-94 37 271 271 0 0 0-33.5 24.5q-36.3-29.5-80.5-46.5a37763 37763 0 0 0-211-62 713 713 0 0 1-156-68q-40.4-25.4-69.5-63.5a154 154 0 0 1-28-77q-.7-563.5-.5-1127Q297 104.9 508.5 94q279.3-15.4 554 37 60 12 119 28.5"/><path fill="#fee407" d="M763.5 198.5a131 131 0 0 1 17.5 16 496 496 0 0 0 35.5 39.5q11.6 10.3 27 12.5-9.8 16.4-29 15.5 8 8.5 12.5 19.5a1680 1680 0 0 0 19 54q5.5 9.9 16.5 13-3.9 4.6-10 5.5a91 91 0 0 1-19 0q-4.5-2-9-3 5.9 9.1 5 20l-.5 9.5q-13.4 31.8 14.5 51-1.3 2.2-4 2.5-20.7 3-36.5-10.5l6 12a51 51 0 0 1 3.5 18 646 646 0 0 1-6.5 43q-4.1 23 13.5 38-23.4 7.3-42.5-9 .8 7.4 0 15a1815 1815 0 0 0-9 41q-3 40 15 76a429 429 0 0 1 31 72 280 280 0 0 1 4.5 23 757 757 0 0 1 42 20q27.4 16.4 59.5 18 52-2 54.5-54.5-1.2-24.6-15.5-44.5a514 514 0 0 0-51-57 275 275 0 0 1-41-55 309 309 0 0 1-9.5-22q-10.6-34.3-2-69a139 139 0 0 1 18-34q4-3 7-7a120 120 0 0 1 14-12 515 515 0 0 0 1.5-32q4-25.7 24.5-41.5l32-19q12.3-9.9 15-25.5 5.1 8.7 4 19 .4 9.9-2.5 19a85 85 0 0 1 11.5-10.5 494 494 0 0 1 36-22q15.2-12.7 21-31.5 3.6 8.3 3 17.5 0 11.7-3.5 22.5a36 36 0 0 1 4.5-3.5 429 429 0 0 0 25-12q6.4-5.4 10.5-12.5a562 562 0 0 0 8.5-21q6.8 11.5 7.5 25 1.3 19.6-1.5 39-8.5 45.8-39 80.5 17.7-3.1 30.5 9.5.8 2 .5 4-20.4.5-36 13.5-33.9 37.5-84 29a204 204 0 0 1-50.5-16.5q-33.8 30.4-23 75 7.8 26.6 25 48a2579 2579 0 0 0 58 63q23.5 25.6 34 59a96 96 0 0 1-19 87q-34.3 34-82.5 26.5a143 143 0 0 1-22-4.5 161 161 0 0 1-23-9 893 893 0 0 1-36-17.5 38 38 0 0 0-8-2.5l-11.5 52q-4.9 33.9 19.5 57.5 11 9 25 11.5 45.6 6.2 66-35a45 45 0 0 1 5.5 13q4.4 23.4-8.5 43-1.2 2.5-4 3.5a80 80 0 0 0 26-2 43 43 0 0 0 11-5.5q1.8 8.9-2.5 17-9.4 18.9-26.5 31.5a363 363 0 0 1-19 12.5q5.1 4.7 12 4 6.5.4 12-3 1.7 1.9.5 4l-3 5q-31.1 27.6-52 63a1066 1066 0 0 1-20 39 23 23 0 0 1-19.5 10q1.5-7.7-5-11.5-8-1.6-15 2-6.7 5.2-12.5 11.5l-32 42q-24.7 27.2-61.5 30a38 38 0 0 1-19-6.5q-2.4-1.2-4 .5a186 186 0 0 0-18.5 21 8 8 0 0 1-2-4 313 313 0 0 1-.5-25 29 29 0 0 1-25-12.5q-7.2-1.5-13 3a59 59 0 0 0-11 14q-1.9.7-2.5-1.5-3-27.4 20.5-42a85 85 0 0 1-7-8.5 25 25 0 0 0-10 0 57 57 0 0 0-13 8.5 36 36 0 0 1 12-30.5l5-2.5q11.6-30.5 42.5-20 3.8-4.2 8.5-7.5a25 25 0 0 1 19 1 82 82 0 0 0 18 12q16.2.7 31-6 41.6-20.6 63.5-61.5a82 82 0 0 0 3.5-12q-1-12.3-13-16.5-16.5-5.5-34-4a126 126 0 0 1-11 24.5l-5 6q-10 11.1-25 12 7.5-20.4-9-34l-6-4a55 55 0 0 1-34 28h-7a83 83 0 0 0 6-16q4.1-17-6.5-31a268 268 0 0 1-19-20q-7-9.8-10.5-21-5.6-28.8 5.5-56a751 751 0 0 0 16-33q7.4-17.2-1-34a115 115 0 0 1-2 18 1214 1214 0 0 1-22 41 81 81 0 0 0-5.5 15q-41.1 12.6-38.5 56 4 33.3 35.5 44.5 7.8 1.3 15-.5 2 0 2 2-13 25-41 18.5a71 71 0 0 1-11-3.5l-1 1a31 31 0 0 0 22 14.5q5.5.8 11 .5-5.3 14.6-21 16.5a30 30 0 0 1-11 0l-29-7q-15-2-28 6-18 13.5-38 24-14.5 6.1-30 4.5 9-21-14-22-15.5 1.3-29 9.5a280 280 0 0 1-43 24q-14 5.5-29 5.5-15.6-.5-27-11a40 40 0 0 0-4.5 6l-7.5 20a13 13 0 0 1-2.5-4q-5.8-22.4-1.5-45-12.7-5.4-22.5-15a29 29 0 0 0-6 4 94 94 0 0 0-9 16 20 20 0 0 1-4-11q-4.4-19 11.5-30 1.2-6.4 1.5-13 1.2-4.5 3.5-8.5-7.8-1.9-14 3l-7 7.5q-4.8-25.6 19-35.5 10.2-.5 20-.5a32 32 0 0 0 3-4.5q-4.7-10.6-16-7-13.1 7-4.5-6.5 16.5-18.2 38.5-6.5 6.1 7.1 15 3.5a28 28 0 0 1 13 2.5l30 24a58 58 0 0 0 21 8q42.1 4.6 80-14 19.2-10.7 15.5-32.5a41 41 0 0 0-7-13 459 459 0 0 1-23-28q-7.6-11-9.5-24-29.8 4.2-41.5-23-1.2-2.2.5-4 16.7 8.2 33-.5l3-3q-22 3.3-32-16.5-2.5-7.8-2-16 3.3.3 6 2 12.1 6 24-1.5a268 268 0 0 1 18-21q14.6-11 33-13a1020 1020 0 0 0 52-4q18-2.6 31.5-14.5 1-1 0-2a552 552 0 0 1-33.5-35 620 620 0 0 1-19-22.5q-63.7 2-119 34-18.3 9.8-27.5 28.5a631 631 0 0 0-7 39 83 83 0 0 1-11 19 68 68 0 0 0-1.5 18 13 13 0 0 1-1 7l-6-5a72 72 0 0 1-7.5-18q-9.5-1.9-14.5-10a20 20 0 0 0-1.5-6q-9.8 14.5-27.5 13.5-4.5 9.7-4 20.5-4.7-.4-6.5-5-8.5-14.6-3.5-30.5-5-9.9-1-20-19.2-2.7-23.5-21.5-9-4-17.5 1.5-5.4 5.1-9 11.5-4.2-32.4 28-38.5a50 50 0 0 1 10-10.5q-5.4-7.6-6-17-13.2-1.6-21 9-1.5-23.8 20-34.5 8-2.6 16-.5 13.8-6.4 27 1.5a192 192 0 0 1 17 16q8.2 4.4 17 1a6496 6496 0 0 0 109-82 435 435 0 0 0-45.5-40.5q-1.4 13.4-11.5 22-8.7-35.4-37-58-21.8-20.7-52-20.5-16 6.5-28 19-5.6 3.5-12 4.5a41 41 0 0 0-9 .5q-24 11.4-35.5-12.5-3.2-6.8-2.5-14a46 46 0 0 0 11 6.5q5.5 1 11 0-.3-10.5 8-17a175 175 0 0 1 14-5 12 12 0 0 0 3.5-4.5 43 43 0 0 0 0-13q-4-8-13-7-12.2 1.5-24.5.5-9.1-3.3-14-11.5a7 7 0 0 0-3-1.5 73 73 0 0 0-17 0q-6.7 3-10 9.5-4.7-18.4 12-28.5a63 63 0 0 1 13-5.5q2.4-13.2 14-19.5-4.4-6.5-4.5-14.5-11-11-26.5-9.5a61 61 0 0 0-6.5 3.5q1.5-18 19.5-22.5 13.5-2 26 3.5 7.5-6 17-6l3-10q-5.4-17.9-24-21 7-9 18.5-8 21.7.7 30.5 20.5 3.6.4 7 1.5 6 2.8 8.5 9 .8 28.4 11 55 7 15 18.5 26.5a211 211 0 0 1 34 8.5 3630 3630 0 0 0 72 37.5q31.4 11.7 65 12.5a90 90 0 0 1-8 16q-10.5 12.2-25 19.5 21.2-.3 32-18.5a988 988 0 0 0 24.5-36 149 149 0 0 1 17.5-18 1041 1041 0 0 1 31-21.5q22.1-15 18.5-41.5-4.7-15.2-20.5-11.5a218 218 0 0 0-44.5 33.5q.3 7.2 3.5 14-4.8 2-9-1-5-3-9-7.5-2.3-1.5-5-1.5a157 157 0 0 0 3 22 13 13 0 0 1-5-.5q-15.7-9.7-25.5-25.5-5.8-11.4-1.5-23.5a57 57 0 0 1-3-20.5l15 7.5q9 1.5 17-2.5 12-4.7 16.5-17a109 109 0 0 0 4-14q3.3-10.5-6.5-14.5-18.3-1.7-36 2.5-9 1.4-13.5 9a83 83 0 0 0 1.5 18q-17.2-6-29.5-20-11.3-13.4-2.5-28.5-1-1-2 0a59 59 0 0 1-8 6.5q-3.6-6.3-5.5-13a509 509 0 0 1 51-42q5-16 17.5-27.5a1116 1116 0 0 1 33-22.5q1.8-29.4 24-48.5a373 373 0 0 0 35.5-29.5l5.5-11q13.8 13.7 10.5 33 27.8-32.1 70.5-28.5 15.6.3 30 6a204 204 0 0 0-18.5 15.5q-.9 1.5 1 2 51.6-10.3 92.5 22"/><path fill="#5c3157" d="M1181.5 159.5q2 278 2 557 0 278.7-1 557 .5-557-1-1114" opacity=".8"/><path fill="#fefefe" d="M270.5 169.5q10.3 15.8 18 33.5a856 856 0 0 1 36 6 495 495 0 0 0-26 27 198 198 0 0 1 5.5 36.5 502 502 0 0 0-32.5-17 502 502 0 0 0-32.5 17 244 244 0 0 1 5.5-36.5 495 495 0 0 0-26-27 268 268 0 0 1 36-6 308 308 0 0 0 16-33.5"/><path fill="#7da3c8" d="M763.5 198.5q.6-1 2-1 21.5 5.2 39 18.5a320 320 0 0 1 41.5 43.5q12.6 15 29.5 24.5l12 3.5q-10.4 16.3-30 14.5 9 8 13.5 19.5a2588 2588 0 0 0 19 54q5.6 11 17.5 13.5-19.1 11.8-39 2 5.4 9 6 19.5a87 87 0 0 1-4.5 22q-2 13 3 25a102 102 0 0 1 7.5 10q-3 4-7 7-14.3-1-25.5-10a255 255 0 0 1 8 19q1 12.5-.5 25-8.6 34.7 2 69-19.3 1.3-35-11a183 183 0 0 0-1.5 19l-7 28q-5 32.2 5 63a1249 1249 0 0 0 33 75 194 194 0 0 1 10.5 38.5q-.3 2-2 2.5a757 757 0 0 0-42-20 280 280 0 0 0-4.5-23 429 429 0 0 0-31-72q-18-36-15-76a1815 1815 0 0 1 9-41q.8-7.6 0-15 19 16.3 42.5 9-17.6-15-13.5-38a646 646 0 0 0 6.5-43 51 51 0 0 0-3.5-18l-6-12q15.8 13.4 36.5 10.5 2.7-.3 4-2.5-27.9-19.2-14.5-51l.5-9.5q.9-10.9-5-20 4.5 1 9 3a91 91 0 0 0 19 0q6.1-1 10-5.5-11-3.1-16.5-13a1680 1680 0 0 1-19-54q-4.5-11-12.5-19.5 19.2.9 29-15.5-15.4-2.2-27-12.5a496 496 0 0 1-35.5-39.5 131 131 0 0 0-17.5-16"/><path fill="#7697bb" d="M500.5 278.5q10.5-.2 21 .5-3.7 1.8-5.5 5.5a64 64 0 0 1-9.5 17.5q-15 7.8-21.5-7.5-1.7-7.3 4.5-11.5a78 78 0 0 1 11-4.5"/><path fill="#7da3c8" d="M883.5 840.5a143 143 0 0 0 22 4.5q48.2 7.4 82.5-26.5a96 96 0 0 0 19-87q-10.5-33.4-34-59a2579 2579 0 0 1-58-63q-17.2-21.4-25-48-10.8-44.6 23-75a204 204 0 0 0 50.5 16.5q50.1 8.5 84-29 15.6-13 36-13.5a8 8 0 0 0-.5-4 33 33 0 0 0-30.5-9.5q30.5-34.7 39-80.5a46 46 0 0 0 32.5-26l6-17a35 35 0 0 1 5 10q13.2 76.3-37.5 134.5 16.6-2.4 29.5 8.5.8 2 .5 4-14.4.4-27 7.5a497 497 0 0 1-29 24q-34.6 19.5-73 9a210 210 0 0 1-40.5-14.5q-29 24.7-26 63 3.6 25.6 18 47l11 15a1066 1066 0 0 0 53 57 186 186 0 0 1 35 55q15.5 49.5-14 92a84 84 0 0 1-68.5 30q-32 .1-61-13.5a180 180 0 0 1-22-11.5"/><path fill="#7ea3c8" d="M492.5 400.5q-13.3-7.5-22.5-20-5.2-11.8.5-23 17.7-4.2 36-2.5 9.8 4 6.5 14.5a109 109 0 0 1-4 14q-4.5 12.3-16.5 17"/><path fill="#7da3c8" d="M277.5 368.5q25.1-5.2 37 18 12.2 1.7 16.5 13-.5 36.8 18.5 68a211 211 0 0 0-34-8.5q-11.6-11.6-18.5-26.5-10.2-26.6-11-55-2.5-6.2-8.5-9"/><path fill="#7ea3c8" d="M527.5 480.5q-15.1-10.6-21-28 4.2 3 9 1-3.2-6.8-3.5-14a218 218 0 0 1 44.5-33.5q15.8-3.7 20.5 11.5 3.6 26.5-18.5 41.5a1041 1041 0 0 0-31 21.5"/><path fill="#94bde2" d="M873.5 474.5a139 139 0 0 0-18 34 120 120 0 0 0 .5-25 255 255 0 0 0-8-19q11.2 9 25.5 10"/><path fill="#7da3c8" d="M351.5 550.5q-9.8-.1-18 5.5l-20 16a262 262 0 0 0-31 6.5q-10.7.3-17.5-8a67 67 0 0 1-7.5-15.5q1.4-.4 2-1.5 6.4-1 12-4.5 12-12.5 28-19 30.2-.2 52 20.5"/><path fill="#85a7c3" d="M478.5 533.5q3.8-.5 7 1-10.8 18.2-32 18.5 14.5-7.3 25-19.5"/><path fill="#94bee4" d="M857.5 577.5a309 309 0 0 0 9.5 22 275 275 0 0 0 41 55 514 514 0 0 1 51 57q14.3 20 15.5 44.5-2.4 52.4-54.5 54.5-32.1-1.6-59.5-18 1.7-.4 2-2.5a194 194 0 0 0-10.5-38.5 1249 1249 0 0 1-33-75q-10-30.8-5-63l7-28q.3-9.5 1.5-19 15.7 12.3 35 11"/><path fill="#7da3c8" d="M536.5 728.5q-55.4 8-102 38.5-25.8 19.7-23 52.5-2.7-1.7-6-2-.5 8.2 2 16a149 149 0 0 0-9.5 14 629 629 0 0 0-2.5 25q-10.6-9.1-13.5-23-13-3-16-16-5.3 8.2-14.5 11a68 68 0 0 1 1.5-18 83 83 0 0 0 11-19 631 631 0 0 1 7-39q9.2-18.7 27.5-28.5 55.3-32 119-34a620 620 0 0 0 19 22.5"/><path fill="#94bde4" d="M536.5 728.5a552 552 0 0 0 33.5 35q1 1 0 2-13.5 11.9-31.5 14.5a1020 1020 0 0 1-52 4q-18.4 2-33 13a268 268 0 0 0-18 21q-11.9 7.5-24 1.5-2.8-32.8 23-52.5 46.6-30.5 102-38.5"/><path fill="#7da3c8" d="M860.5 831.5a41 41 0 0 1-.5 9 622 622 0 0 0-10 37q-6.9 29.7 10.5 54.5a61 61 0 0 1-11 .5q-14-2.5-25-11.5-24.4-23.6-19.5-57.5l11.5-52a38 38 0 0 1 8 2.5 893 893 0 0 0 36 17.5"/><path fill="#7ea4c8" d="M322.5 818.5q5 8.1 14.5 10a72 72 0 0 0 7.5 18q-8-1.1-8.5 7 1.6 26.5-10 4-5.8-12.7-1.5-26a39 39 0 0 1-2-13m303 132q-8 25.7 5 49l-2 2a38 38 0 0 1-15 .5Q582 990.8 578 957.5q-2.6-43.4 38.5-56a81 81 0 0 1 5.5-15 1214 1214 0 0 0 22-41 115 115 0 0 0 2-18q8.4 16.8 1 34a751 751 0 0 1-16 33q-11.1 27.2-5.5 56"/><path fill="#7da3c8" d="M678.5 1200.5q1.6-1.7 4-.5a38 38 0 0 0 19 6.5q36.8-2.8 61.5-30l32-42q5.8-6.3 12.5-11.5 7-3.6 15-2 6.5 3.8 5 11.5 12.3 0 19.5-10a1066 1066 0 0 0 20-39q20.9-35.4 52-63l3-5q1.2-2.1-.5-4-5.5 3.4-12 3-6.9.7-12-4a363 363 0 0 0 19-12.5q17.1-12.6 26.5-31.5 4.3-8.1 2.5-17a43 43 0 0 1-11 5.5 80 80 0 0 1-26 2q2.8-1 4-3.5 34-4.7 47.5-36 13.3 26.6-1 53a26 26 0 0 1-5.5 6.5q19.8 2.3 37-7.5.5 12.8-6.5 24-17 23.5-42.5 37.5 11.5 6.2 24 1.5 1.7 3-.5 6a498 498 0 0 1-26 27 268 268 0 0 0-28 39 1066 1066 0 0 1-20 39q-7 9.1-18.5 9-.6-15.6-16-11.5-10.5 6-18.5 15.5a300 300 0 0 1-41.5 50.5q-26 22.4-60 18a61 61 0 0 1-11.5-5.5q-12.1 9.3-20.5 22a19 19 0 0 1-2.5-7q-.7-10.5-.5-21-12-1.4-21.5-9a10 10 0 0 1-1.5-4" data-source="https://football-logos.cc"/><path fill="#94bde3" d="M625.5 950.5q3.6 11.2 10.5 21a268 268 0 0 0 19 20q10.5 14 6.5 31a45 45 0 0 1-29.5-20q-.6.9-1.5 1 0-2-2-2l2-2q-13-23.3-5-49"/><path fill="#7da3c8" d="M799.5 1026.5h-3a58 58 0 0 1-26 38.5 47 47 0 0 1-14 3.5q9-25.6-15-38a126 126 0 0 0 11-24.5q17.5-1.5 34 4 12 4.2 13 16.5"/><path fill="#80a4c7" d="M702.5 1014.5q16.5 13.6 9 34 15-.9 25-12-11.8 21.4-36 21 10.5-16.7 5.5-36a17 17 0 0 1-3.5-7"/><path fill="#7da3c8" d="M661.5 1022.5a83 83 0 0 1-6 16h7q-13.5 7.8-29 3.5-19.3-8.5-4 6 12.4 7.7 27 7.5-11 19-33 15.5l-28-6a61 61 0 0 0-20 1l-46 28q-15.5 6-32 6 8.8-11.4-2-21-10.3-4.4-21-1a134 134 0 0 0-20 9 196 196 0 0 1-57 28 47 47 0 0 1-41-9.5q-4.3 4.2-6.5 10a70 70 0 0 1-5.5 15 47 47 0 0 1-5.5-17q-.7-9-.5-18 15 0 29-5.5a280 280 0 0 0 43-24q13.5-8.2 29-9.5 23 1 14 22 15.5 1.6 30-4.5 20-10.5 38-24 13-8 28-6l29 7q5.5 1 11 0 15.7-2 21-16.5-5.5.3-11-.5a31 31 0 0 1-22-14.5l1-1a71 71 0 0 0 11 3.5q28 6.4 41-18.5.9-.1 1.5-1 10.6 16.2 29.5 20"/><path fill="#490226" d="M1036.5 1275.5q33 29.7 70 54.5a47 47 0 0 0 12 5q-17.4 12.6-34.5 25.5 2.2-7.8-3.5-13.5-7.8-7.3-16.5-13.5-11.8 8.3-24.5 15.5a5 5 0 0 0-3 4q2.7 13 8 25 2.7 2.2 6 3l-29 16.5q.7-15-2.5-30-5.4-28.6-12-57-1.2-6.4-4.5-12zm-796 1 37 23.5q-3.6 3-4.5 7.5a1955 1955 0 0 0-16 70q-.6 10.8-.5 21l-37-21.5q5.4-1 8.5-5.5a174 174 0 0 0 6.5-22.5q-.4-1.9-2-3a416 416 0 0 1-23-15q-2-1-4 0a110 110 0 0 0-18.5 16.5q-.3 3.6-1.5 7a827 827 0 0 1-28-19.5q18-6.3 33-18l47-35a9 9 0 0 0 3-5.5"/><path fill="#fcfdfe" d="M593.5 1278.5q13.8-1.7 26 4.5 11.1 13.8-3 24.5 19.5 12.3 4 29.5-14.4 7-30 3-20-9.7-8-28a36 36 0 0 1 7-4q-16.5-11.9-2-26 3.3-1.4 6-3.5"/><path fill="#fdfdfe" d="M546.5 1279.5h11v61h-13q.5-21-1-42a27 27 0 0 1-11 2v-10q8.3.5 13.5-6 .8-2.4.5-5"/><path fill="#fcfdfe" d="M641.5 1279.5h44q.3 5-.5 10-20.2 21.4-20.5 51h-13q.2-28.7 20-49.5a448 448 0 0 0-30-.5z"/><path fill="#fbfcfe" d="M722.5 1279.5h14v37h9v11h-9v13h-14v-13h-28q-.3-6.5.5-13a557 557 0 0 0 27.5-35"/><path fill="#97c0e5" d="M598.5 1287.5q7-1 12.5 3 4.8 13-9 13-10.5-.5-9-11 2.6-2.9 5.5-5"/><path fill="#92b9e0" d="M249.5 1292.5q1-.2 2 .5a218 218 0 0 0-12 40.5 5 5 0 0 1-3-.5l-18-12 28-24q2.5-1.7 3-4.5"/><path fill="#99c1e6" d="M722.5 1294.5q1.5 10.8 1 22-9 .3-18-.5a510 510 0 0 0 17-21.5"/><path fill="#92b9e0" d="M1020.5 1296.5q16.4 13.5 32 28a199 199 0 0 1-19.5 13q-6-20.6-12.5-41"/><path fill="#96bfe5" d="M597.5 1312.5q20.2-2.1 14 16.5-11 7.8-19.5-2.5-2.6-9.2 5.5-14"/><path fill="#490226" d="M312.5 1325.5a80 80 0 0 1 51 21.5q-3.7 10-8.5 19.5-8.2-24.7-33.5-22.5-5.7 7-.5 14.5a358 358 0 0 1 20 25q11.4 20.8-6.5 36.5a35 35 0 0 1-24 4 133 133 0 0 1-37-17q-5.5-3.5-9-9a558 558 0 0 1 10.5-19.5q8.8 28.3 38.5 27.5a11 11 0 0 0 4.5-11.5l-22-30q-11.4-28.1 16.5-39"/><path fill="#490225" d="M942.5 1329.5h3q.7 11 5.5 21a3920 3920 0 0 1 25.5 53.5q11.5-3.3 22-10 6.6-6 9.5-14.5 4.5 9.7 8.5 19.5a4 4 0 0 1-1 2 1107 1107 0 0 1-63.5 30.5 56 56 0 0 0-3-18q-12.6-31.4-27-62a26 26 0 0 0-8.5-8.5q15.4-5.2 29-13.5"/><path fill="#490226" d="m372.5 1348.5 51 17.5a271 271 0 0 0 27 7.5 131 131 0 0 1-4.5 19 38 38 0 0 0-26-13 1775 1775 0 0 0-20 64 280 280 0 0 0-.5 16 860 860 0 0 1-36-13.5q5.8-3.9 8.5-10.5a2447 2447 0 0 0 23.5-64q-6-3.7-13-5.5a93 93 0 0 0-17 0 63 63 0 0 0 7-17.5m500 10h4a53 53 0 0 0 3.5 23 2566 2566 0 0 0 19 54 4 4 0 0 0 2 1q16.1-3.8 28-15a58 58 0 0 0 3-8q3.9 10.5 6.5 21.5-.4 2-2 3a1462 1462 0 0 1-64 22.5q0-6.8-.5-14a668 668 0 0 0-24-73l-4.5-4.5a318 318 0 0 0 29-10.5m-45 14q1.5 0 2 1.5a21 21 0 0 0-.5 10.5 806 806 0 0 0 22 76l4.5 4.5a395 395 0 0 1-38 9 25 25 0 0 0 1.5-14.5 786 786 0 0 0-17-71 55 55 0 0 0-5.5-7 645 645 0 0 0 31-9"/><path fill="#490225" d="M483.5 1382.5q77.3 2 55.5 76a44 44 0 0 1-42 25q-28.9-.7-49-21a51 51 0 0 1-3-47q10.4-27.2 38.5-33m307-1q.8 0 1 1-4.6 8.4-5.5 18a1159 1159 0 0 1-11.5 82 365 365 0 0 1-30 5.5q-5 1.3-10-.5a1249 1249 0 0 1-34.5-77 43 43 0 0 0-9.5-13.5 474 474 0 0 0 33-3.5l4 1a12 12 0 0 0-1.5 10 1644 1644 0 0 0 31 70 2661 2661 0 0 0 8.5-72q1.7-8.7-5-14l28-5.5q1.4-.4 2-1.5"/><path fill="#480125" d="m562.5 1395.5 34.5 3a1873 1873 0 0 0 35 74q1-33 0-66a17 17 0 0 0-3.5-7 122 122 0 0 1 27-.5q-3 4.8-3.5 10.5-.6 42.5.5 85-17.3.5-34.5-1a625 625 0 0 1-35-74 514 514 0 0 0-4 65l2.5 7a98 98 0 0 1-30-1.5 29 29 0 0 0 4-6 546 546 0 0 0 9-76q.3-6.5-2-12.5"/><path fill="#93bce3" d="M490.5 1397.5q26-2 26 24-.1 20-8.5 38-11.7 14-28.5 6.5a21 21 0 0 1-10-22q.3-21.4 11.5-39.5 4.2-4.5 9.5-7" data-source="https://football-logos.cc"/></svg>